PathFileType	4	(X/Y/Z)	/Users/niels/Desktop/University/Third Semester/Perception and Action/Exam/Gymnastics Motion Tracking/Code for Gym Tracking/Analyzed Data/Webcam_Backflip/id5_1_baseline_Sports2D/id5_1_baseline_Sports2D_px_person00.trc
DataRate	CameraRate	NumFrames	NumMarkers	Units	OrigDataRate	OrigDataStartFrame	OrigNumFrames
29.80392156862745	29.80392156862745	11	22	m	29.80392156862745	114	153
Frame#	Time	Hip			RHip			RKnee			RAnkle			RBigToe			RSmallToe			RHeel			LHip			LKnee			LAnkle			LBigToe			LSmallToe			LHeel			Neck			Head			Nose			RShoulder			RElbow			RWrist			LShoulder			LElbow			LWrist		
		X1	Y1	Z1	X2	Y2	Z2	X3	Y3	Z3	X4	Y4	Z4	X5	Y5	Z5	X6	Y6	Z6	X7	Y7	Z7	X8	Y8	Z8	X9	Y9	Z9	X10	Y10	Z10	X11	Y11	Z11	X12	Y12	Z12	X13	Y13	Z13	X14	Y14	Z14	X15	Y15	Z15	X16	Y16	Z16	X17	Y17	Z17	X18	Y18	Z18	X19	Y19	Z19	X20	Y20	Z20	X21	Y21	Z21	X22	Y22	Z22
114	3.825	1.0423270386628547	-0.5688279203097136	0.0	1.033983802442401	-0.5655050838889899	0.0	1.0034475233394606	-0.6719943607585611	0.0	0.9591251064509584	-0.7706669504174264	0.0	0.9879116026216176	-0.8008947428474777	0.0	0.9751136871041776	-0.8025979807809118	0.0	0.945655824945589	-0.7822909018004647	0.0	1.054119737334148	-0.5671611582246435	0.0	1.071997562441912	-0.6652290792581487	0.0	1.076401145636429	-0.7653669593462088	0.0	1.1144102239560565	-0.7848074246005267	0.0	1.11162062752473	-0.7805061966056194	0.0	1.06884915683799	-0.7806281694728119	0.0	1.0231081834095426	-0.4223255168940373	0.0	1.0283691263394679	-0.35902843903148046	0.0	1.0507371004280142	-0.38602957274464583	0.0	1.0193935594602888	-0.4317221762740975	0.0	1.0172482571190338	-0.4434404432554552	0.0	1.0219625734446005	-0.416992067368121	0.0	1.0149707427082977	-0.4359269601362338	0.0	0.9835806231026347	-0.4726715319060295	0.0	1.0171486939381442	-0.44527625595860904	0.0
115	3.8585526315789473	1.0395299325066347	-0.5759019302341752	0.0	1.0317700958187876	-0.572937235332094	0.0	1.001651103666101	-0.678488910419806	0.0	0.9575818271064056	-0.7777789791394807	0.0	0.9866227833770551	-0.8067168037736636	0.0	0.9737898971183907	-0.8086696907666471	0.0	0.9447109936469988	-0.7890242030609467	0.0	1.0506005284287172	-0.5744691027999732	0.0	1.0708588434990676	-0.6705784266213504	0.0	1.0758143293383902	-0.7710157616457918	0.0	1.114748451880695	-0.7896770858507812	0.0	1.1113045034766522	-0.7854045931914256	0.0	1.068398122928361	-0.7862776695453688	0.0	1.0228514745178106	-0.42914534420555744	0.0	1.0287340193280865	-0.3661069307119072	0.0	1.0512263026246793	-0.3930830011322173	0.0	1.0197704094076359	-0.43915195190118145	0.0	1.0187257435265746	-0.4584724832110039	0.0	1.0278920690984017	-0.4384895103715157	0.0	1.014872652790728	-0.44270631572794733	0.0	0.9832719891522714	-0.48226146956602534	0.0	1.0298503003844077	-0.46690227800646195	0.0
116	3.892105263157895	1.03665803253223	-0.5822907358351251	0.0	1.0294915685735107	-0.579527525617912	0.0	1.0001406039661924	-0.6842244417034993	0.0	0.9561495318716813	-0.7840699536047926	0.0	0.9854366745435507	-0.8120352487493139	0.0	0.9726119658394834	-0.8142079777413768	0.0	0.9438776129736774	-0.7949547844431356	0.0	1.046897651456288	-0.5809320845135854	0.0	1.0699921524039455	-0.6752094454122735	0.0	1.0752411781756066	-0.7759503477095323	0.0	1.1149448070885075	-0.7939956617213512	0.0	1.111198030377333	-0.789737484605778	0.0	1.068120089228048	-0.7911708690982089	0.0	1.0229402908260237	-0.43537306280657556	0.0	1.0292660853673983	-0.3726211936842706	0.0	1.051860028227031	-0.3995316505673564	0.0	1.0203569457419461	-0.4460484910437475	0.0	1.0194932843574405	-0.4737972115566032	0.0	1.0334903666912758	-0.4652105292199556	0.0	1.015865431160057	-0.44917699040321	0.0	0.9857825882313278	-0.4923216376342201	0.0	1.041880970298519	-0.48948831555886607	0.0
117	3.925657894736842	1.0339740130998638	-0.587347348703981	0.0	1.0272246180864208	-0.584654762950625	0.0	0.9987863969211093	-0.6887657922779701	0.0	0.9549730111035661	-0.7889920060752459	0.0	0.984404210125996	-0.8163921369562297	0.0	0.971638078257983	-0.8187050710444888	0.0	0.9432176707246187	-0.7995877997187253	0.0	1.043419456085872	-0.5859874626689059	0.0	1.0691548413977578	-0.6788669604165389	0.0	1.0746975248434518	-0.779761903008957	0.0	1.1148256207007952	-0.7973207788322029	0.0	1.111157072765034	-0.7931069392088232	0.0	1.06797303086362	-0.7948598387000254	0.0	1.0232139418112502	-0.4403901029580532	0.0	1.0295966282063858	-0.37797769363718386	0.0	1.0523411076314009	-0.40472774883794094	0.0	1.0207134282834136	-0.4519560104514203	0.0	1.019102407509248	-0.48838418506822984	0.0	1.0368945988630758	-0.49413493639501416	0.0	1.0175843605335506	-0.454804699284008	0.0	0.9909475629423657	-0.5020655537242324	0.0	1.0505550956902179	-0.5107693018617537	0.0
118	3.9592105263157893	1.0317691569182876	-0.5906396708226289	0.0	1.0250548499280623	-0.5879384812578654	0.0	0.9975265619947028	-0.6917994778208739	0.0	0.9541334134029644	-0.7921661769225272	0.0	0.9835943490825331	-0.8193806605195503	0.0	0.9709467616973311	-0.8217519118809775	0.0	0.9427663554079988	-0.8026115225881433	0.0	1.04061436561476	-0.5892669716907197	0.0	1.0682547279328687	-0.6813160552064809	0.0	1.0741997417709808	-0.7821916070448012	0.0	1.114387583619479	-0.799306865429268	0.0	1.1110096747311662	-0.7951841628028965	0.0	1.0678765425221812	-0.7970854719354092	0.0	1.0234339140883144	-0.4437580158144285	0.0	1.0294823418189325	-0.3817569219687026	0.0	1.0524374450940626	-0.40823668432693516	0.0	1.0203895707018715	-0.45651347739286885	0.0	1.0170601035015399	-0.5013229842874857	0.0	1.0360841415968949	-0.5222131417199993	0.0	1.0197184557941812	-0.459156419865636	0.0	0.9982344489571034	-0.5108724243109439	0.0	1.0549349715967864	-0.530149091137888	0.0
119	3.992763157894737	1.0302573562092852	-0.5920143929656491	0.0	1.0231034049146144	-0.5892758190451207	0.0	0.996390838480277	-0.6931909036900575	0.0	0.9536661088618938	-0.7934380407418042	0.0	0.9831107270451416	-0.8207309779598538	0.0	0.9706412730219249	-0.8231338302322333	0.0	0.9425456985734064	-0.8039282058629652	0.0	1.0387768095477534	-0.5906320077263517	0.0	1.0673224998268804	-0.6823866350444521	0.0	1.0737563949925453	-0.7831367655444974	0.0	1.113766975585761	-0.7997529536561123	0.0	1.110662873474136	-0.7957517559679479	0.0	1.0677570351099195	-0.7977801545420175	0.0	1.0233558022431728	-0.4453064512645185	0.0	1.0288742301089366	-0.3836840079253645	0.0	1.0520039944045492	-0.4098628516649183	0.0	1.0190879512018034	-0.4595626827253584	0.0	1.0131652913714897	-0.511825184698197	0.0	1.0303403519780967	-0.5470824960816691	0.0	1.0220086067382854	-0.4619650417626477	0.0	1.0066006938584193	-0.5181721918693817	0.0	1.0553238169168435	-0.5475389189399745	0.0
120	4.026315789473684	1.0294784593735469	-0.5915486470349296	0.0	1.0214851868040629	-0.5887919056684905	0.0	0.995467264002692	-0.6929807077978064	0.0	0.9535629673999555	-0.79288835034406	0.0	0.9830774025393639	-0.8203354602088754	0.0	0.9708216464108645	-0.8228153510062322	0.0	0.9425427122032707	-0.8036197571806463	0.0	1.0379586547669382	-0.5901392319424915	0.0	1.0664215188917228	-0.682045342706761	0.0	1.073362253130043	-0.7826244531215913	0.0	1.1131880789573374	-0.7986409238936044	0.0	1.1101672059603869	-0.7947418862129908	0.0	1.0675668602917894	-0.7970173875722222	0.0	1.0227822511220668	-0.44508730150507003	0.0	1.0278403981285227	-0.38365201066522975	0.0	1.0509834311295765	-0.4096498145433334	0.0	1.0167231347286778	-0.4611023031921841	0.0	1.0076730573142612	-0.5194447526346437	0.0	1.020645431856589	-0.5670290737740955	0.0	1.0241234198320575	-0.46307848684565744	0.0	1.0144466421942615	-0.5233768110028016	0.0	1.0524588201308898	-0.5623717846278263	0.0
121	4.059868421052632	1.0292461116576193	-0.5894341479760252	0.0	1.0202104680859208	-0.5867276658183557	0.0	0.9948295441997147	-0.6913113073035143	0.0	0.953752455834216	-0.7907594519439288	0.0	0.9835498675640405	-0.8182385724227484	0.0	0.9714956314979355	-0.8208812347630426	0.0	0.9426872552094013	-0.8018618084045089	0.0	1.037969482043749	-0.5879649796311522	0.0	1.0655841649142912	-0.6804015341590841	0.0	1.0730081243103446	-0.7807802491357378	0.0	1.1128709522389668	-0.7961290741126879	0.0	1.1096890395888372	-0.7922625335056963	0.0	1.0672794251375435	-0.7949424041307187	0.0	1.0215945287304844	-0.4432914862637482	0.0	1.0264370446977495	-0.3817675596633223	0.0	1.049391943667807	-0.4078466440447078	0.0	1.0133961814082117	-0.4611799030808946	0.0	1.0011464367230625	-0.5240447897606021	0.0	1.008901843375173	-0.580948289293363	0.0	1.0256584156463728	-0.4624299798107687	0.0	1.0201889654551752	-0.526059931459906	0.0	1.0469689334648349	-0.5735289000537468	0.0
122	4.093421052631579	1.0292233597210345	-0.5859232364945115	0.0	1.0191636152776777	-0.5833852113029008	0.0	0.9944872785730954	-0.688391295097578	0.0	0.9541037733747741	-0.7873736728768099	0.0	0.9844797741942307	-0.8146381317155142	0.0	0.9725478354482708	-0.8175203833527191	0.0	0.9428760040337574	-0.7988762428998625	0.0	1.0384464141333571	-0.5843817067215731	0.0	1.0648126838001888	-0.6776631170220336	0.0	1.0726794700593671	-0.7778117477435832	0.0	1.1129286997184415	-0.7925041129304237	0.0	1.1094222489135475	-0.7885964024922605	0.0	1.0668900107395134	-0.7917480730875919	0.0	1.0197508028669486	-0.440230652997747	0.0	1.0246872361586314	-0.3783511115446943	0.0	1.0472845016537027	-0.4048399380950322	0.0	1.0093170548135182	-0.45989882236402563	0.0	0.9942051027591772	-0.5256790535244581	0.0	0.9970517955920737	-0.5885262875570418	0.0	1.0262746431658298	-0.46010589052760403	0.0	1.0228786806989854	-0.526122322257882	0.0	1.0390227127780591	-0.5799794592404158	0.0
123	4.126973684210526	1.02908418765605	-0.5813713180642998	0.0	1.0181738287514588	-0.5791441200027689	0.0	0.994373740315343	-0.6845305887401684	0.0	0.954460914991758	-0.7831137181524337	0.0	0.9857728862893543	-0.8098914935143862	0.0	0.9738365984165844	-0.8130530195456834	0.0	0.9430087198134773	-0.7949666205744516	0.0	1.0390019648608206	-0.5797726817652029	0.0	1.0641005636500571	-0.6741038406581783	0.0	1.072356484913132	-0.7740058797310235	0.0	1.1133375888148047	-0.7881257792955065	0.0	1.1094945194173773	-0.7841388923943882	0.0	1.0664254251477672	-0.7877064803630971	0.0	1.0172757516640603	-0.43633357144338103	0.0	1.0226398902175053	-0.3738818171870763	0.0	1.0447314829843608	-0.40108625131326264	0.0	1.0047261497090711	-0.45745634979442146	0.0	0.9873463323261719	-0.5246492633949826	0.0	0.9866346635003818	-0.5903145754743172	0.0	1.0258364690595347	-0.45640589606483856	0.0	1.0223960298857837	-0.5238179683109662	0.0	1.028501448332232	-0.5815823021095625	0.0
124	4.160526315789474	1.0285928815778216	-0.5762722729285944	0.0	1.01706501106748	-0.5744517945630002	0.0	0.9943476584238248	-0.6801561896781793	0.0	0.9546806106725554	-0.7784251272692663	0.0	0.9873046524255127	-0.8044858765111433	0.0	0.9752470074150208	-0.8079353270298452	0.0	0.9430090803096994	-0.7905701174525183	0.0	1.0393329270486702	-0.574616969384977	0.0	1.0634393315957222	-0.6700575747134662	0.0	1.0720314006759561	-0.7697221297446869	0.0	1.1139760155986806	-0.7833917754643654	0.0	1.1099045550262083	-0.7793174348510052	0.0	1.065941392234308	-0.7831973596833419	0.0	1.01427804033222	-0.4320923158183451	0.0	1.020394537512669	-0.3689273209810629	0.0	1.0418426136851096	-0.39707909897825433	0.0	0.9998623146960961	-0.4541530917097773	0.0	0.9808966099074514	-0.521607415015903	0.0	0.9786251416398081	-0.5877011249435964	0.0	1.0244804009098725	-0.45182330790383657	0.0	1.0194993565270976	-0.5197783921693407	0.0	1.0160683899758973	-0.5793248197712039	0.0
